HIERARCHY
ROOT root
{
	OFFSET	0	13.1	24.9
	CHANNELS 6  Xposition Yposition Zposition Xrotation Yrotation Zrotation
	JOINT spine_1
	{
		OFFSET	0	9.99999	0
		CHANNELS 3  Xrotation Yrotation Zrotation
		JOINT spine_2
		{
			OFFSET	0	112	-10
			CHANNELS 3  Xrotation Yrotation Zrotation
			JOINT spine_3
			{
				OFFSET	0	206.5	19.3
				CHANNELS 3  Xrotation Yrotation Zrotation
				JOINT spine_4
				{
					OFFSET	0	110.4	14.6
					CHANNELS 3  Xrotation Yrotation Zrotation
					JOINT neck_1
					{
						OFFSET	0	71.8	-50.3
						CHANNELS 3  Xrotation Yrotation Zrotation
						JOINT neck_2
						{
							OFFSET	0	86.2	-25.8
							CHANNELS 3  Xrotation Yrotation Zrotation
							JOINT head_ee
							{
								OFFSET	0	179.8	-8.7
								CHANNELS 3  Xrotation Yrotation Zrotation
								End Site
								{
									OFFSET	1	0	0
								}
							}
						}
					}
					JOINT left_clavicle
					{
						OFFSET	-43.2	22.4	-70.8
						CHANNELS 3  Xrotation Yrotation Zrotation
						JOINT left_shoulder
						{
							OFFSET	-93.9	-5.79999	48.7
							CHANNELS 3  Xrotation Yrotation Zrotation
							JOINT left_elbow
							{
								OFFSET	-291.4	-30.8	15.2
								CHANNELS 3  Xrotation Yrotation Zrotation
								JOINT left_lowarm_twist
								{
									OFFSET	-110.7	-3.89999	13.6
									CHANNELS 3  Xrotation Yrotation Zrotation
									JOINT left_hand
									{
										OFFSET	-110.7	-3.89999	13.6
										CHANNELS 3  Xrotation Yrotation Zrotation
										JOINT left_ee
										{
											OFFSET	-80.8	-5.10001	12.1
											CHANNELS 3  Xrotation Yrotation Zrotation
											End Site
											{
												OFFSET	1	0	0
											}
										}
									}
								}
							}
						}
					}
					JOINT right_clavicle
					{
						OFFSET	43.2	22.4	-70.8
						CHANNELS 3  Xrotation Yrotation Zrotation
						JOINT right_shoulder
						{
							OFFSET	93.9	-5.79999	48.7
							CHANNELS 3  Xrotation Yrotation Zrotation
							JOINT right_elbow
							{
								OFFSET	291.4	-30.8	15.2
								CHANNELS 3  Xrotation Yrotation Zrotation
								JOINT right_lowarm_twist
								{
									OFFSET	110.7	-3.89999	13.6
									CHANNELS 3  Xrotation Yrotation Zrotation
									JOINT right_hand
									{
										OFFSET	110.7	-3.89999	13.6
										CHANNELS 3  Xrotation Yrotation Zrotation
										JOINT right_ee
										{
											OFFSET	80.8	-5.10001	12.1
											CHANNELS 3  Xrotation Yrotation Zrotation
											End Site
											{
												OFFSET	1	0	0
											}
										}
									}
								}
							}
						}
					}
				}
			}
		}
	}
	JOINT left_hip
	{
		OFFSET	-82.8	-127.5	0.300001
		CHANNELS 3  Xrotation Yrotation Zrotation
		JOINT left_knee
		{
			OFFSET	-28.2	-396.7	2.2
			CHANNELS 3  Xrotation Yrotation Zrotation
			JOINT left_ankle
			{
				OFFSET	-11.7	-411.3	35.4
				CHANNELS 3  Xrotation Yrotation Zrotation
				JOINT left_toes
				{
					OFFSET	0	-60	-88.6
					CHANNELS 3  Xrotation Yrotation Zrotation
					JOINT left_foot_ee
					{
						OFFSET	-22.5	-16.5	-42.2
						CHANNELS 3  Xrotation Yrotation Zrotation
						End Site
						{
							OFFSET	1	0	0
						}
					}
				}
			}
		}
	}
	JOINT right_hip
	{
		OFFSET	82.8	-127.5	0.300001
		CHANNELS 3  Xrotation Yrotation Zrotation
		JOINT right_knee
		{
			OFFSET	28.2	-396.7	2.2
			CHANNELS 3  Xrotation Yrotation Zrotation
			JOINT right_ankle
			{
				OFFSET	11.7	-411.3	35.4
				CHANNELS 3  Xrotation Yrotation Zrotation
				JOINT right_toes
				{
					OFFSET	0	-60	-88.6
					CHANNELS 3  Xrotation Yrotation Zrotation
					JOINT right_foot_ee
					{
						OFFSET	22.5	-16.5	-42.2
						CHANNELS 3  Xrotation Yrotation Zrotation
						End Site
						{
							OFFSET	1	0	0
						}
					}
				}
			}
		}
	}
}
MOTION
Frames: 12
Frame Time: 0.02
3504.41 753.19 -1336.0 12.8826 63.7603 -11.1419 -4.08684 0.112547 0.384668 -4.08676 0.087842 0.39105 -4.08601 -0.0248754 0.400022 -4.08623 0.0386122 0.39893 -8.07703 14.0998 5.64624 -8.06375 22.4005 8.6818 -0.0 0.0 -0.0 7.25242 11.8251 13.7386 -5.28676 -10.7525 58.4649 1.98998 -44.5847 0.815908 -34.6786 -2.40383 3.65288 -3.22448 9.26542 -17.1712 -0.0 0.0 -0.0 11.5167 27.6933 -22.0833 -13.9798 13.2804 -58.5612 0.357839 10.0522 -0.0314712 -2.69627 0.10277 -0.328918 -1.4284 -11.5056 4.3216 0.0 0.0 0.0 1.09707 51.4797 -3.82437 -17.5751 0.316622 2.66792 24.6793 -17.6264 -3.6123 -9.91148 0.0 0.0 -0.0 0.0 -0.0 4.32603 -18.4585 8.64483 -10.9412 -0.293608 -1.65089 9.74553 30.0436 1.75744 -0.803562 0.0 0.0 0.0 0.0 0.0 
3504.05 753.853 -1334.83 12.7613 63.6442 -10.9906 -4.12744 0.0707082 0.414441 -4.12734 0.0441932 0.4181 -4.12686 -0.0746386 0.413751 -4.1271 -0.0083583 0.420346 -7.46637 14.2759 5.15225 -7.43803 22.957 8.12586 -0.0 0.0 -0.0 7.43977 12.0334 14.0545 -5.69218 -11.2521 57.946 2.05183 -45.4611 0.859659 -34.5459 -2.39067 3.64206 -2.91628 7.79229 -15.8769 -0.0 0.0 -0.0 11.3351 27.274 -21.7228 -14.3665 14.4353 -58.2605 0.382597 10.732 -0.0359373 -2.79043 0.106638 -0.340316 -1.38442 -12.8642 3.42037 0.0 0.0 0.0 -0.172534 52.0165 -3.08085 -16.9681 0.319413 2.57482 23.0413 -18.2688 -3.4226 -10.6155 0.0 0.0 -0.0 0.0 -0.0 4.29526 -18.5067 8.6021 -10.289 -0.284993 -1.5512 8.35924 30.0691 1.5169 0.0527936 -0.0 -0.0 0.0 0.0 0.0 
3500.08 755.967 -1334.96 12.8525 63.2366 -11.1561 -4.19744 0.115115 0.417153 -4.19735 0.0883375 0.423633 -4.19651 -0.0343325 0.431381 -4.19677 0.0342263 0.431389 -6.81076 14.7954 4.66 -6.75947 24.1503 7.62616 -0.0 0.0 -0.0 7.46009 12.035 14.0899 -5.59448 -11.386 57.8478 2.09713 -46.0862 0.892124 -34.3835 -2.37461 3.6288 -2.74254 6.84877 -15.1926 -0.0 0.0 -0.0 11.3921 27.6858 -21.8023 -15.1328 14.9464 -58.3519 0.405039 11.3456 -0.0402343 -2.81057 0.107468 -0.342754 -1.34137 -13.8046 2.72134 0.0 0.0 0.0 -0.929994 52.7883 -2.64264 -16.6363 0.320521 2.52394 22.1479 -18.815 -3.32166 -10.9718 0.0 0.0 -0.0 0.0 -0.0 3.50224 -18.6072 8.83692 -9.51714 -0.273329 -1.43333 8.88557 30.8397 1.62606 1.14208 -0.0 -0.0 0.0 0.0 0.0 
3500.36 755.581 -1335.1 13.123 62.5716 -11.4988 -4.22331 0.225282 0.397607 -4.22325 0.199525 0.411136 -4.22162 0.0756893 0.450681 -4.22187 0.145915 0.433072 -7.86698 14.5266 4.67997 -7.87675 23.8421 7.79544 -0.0 0.0 -0.0 7.42483 12.6295 13.9914 -6.37725 -12.0708 57.6351 2.26694 -48.3086 1.01674 -34.7707 -2.41297 3.66036 -2.44407 5.69054 -13.7615 -0.0 0.0 -0.0 11.3926 27.5749 -21.8168 -14.8877 15.4225 -57.9985 0.413421 11.5741 -0.0418997 -2.92901 0.112366 -0.35708 -1.30005 -14.3604 2.21136 0.0 0.0 0.0 -1.73103 53.4799 -2.11547 -16.2534 0.321434 2.4652 22.5912 -17.9883 -3.35677 -11.2536 0.0 0.0 -0.0 0.0 -0.0 2.84212 -19.899 8.57382 -7.67467 -0.239077 -1.15269 7.9441 29.7784 1.43835 1.20227 -0.0 -0.0 0.0 0.0 0.0 
3495.88 755.005 -1334.65 13.1867 62.5534 -11.4441 -4.23522 0.290658 0.548717 -4.23509 0.255153 0.5661 -4.2322 0.0853236 0.615053 -4.23268 0.181387 0.59386 -8.31686 14.7952 4.99701 -8.34827 24.2128 8.25643 -0.0 0.0 -0.0 7.42746 12.7267 13.9898 -6.74288 -12.832 57.2788 2.31434 -48.8964 1.0523 -35.0593 -2.44169 3.68371 -2.34212 4.91292 -13.4574 -0.0 0.0 -0.0 11.3307 27.4025 -21.6976 -14.8453 15.2286 -58.3472 0.442963 12.3765 -0.0480295 -2.95534 0.113459 -0.360264 -1.22771 -14.8496 1.54145 0.0 0.0 0.0 -1.48314 52.5986 -2.46047 -15.4354 0.322069 2.33969 20.4358 -17.717 -3.06629 -11.767 0.0 0.0 -0.0 0.0 -0.0 2.35788 -20.46 8.64637 -6.61246 -0.215233 -0.991432 7.44717 30.2886 1.36054 1.24021 -0.0 -0.0 0.0 0.0 0.0 
3496.34 755.46 -1333.17 13.7245 62.2651 -12.0086 -4.2347 0.392471 0.545628 -4.2346 0.356956 0.569495 -4.23067 0.18207 0.646985 -4.23114 0.281963 0.610113 -8.78238 14.6586 4.71292 -8.84997 24.2431 8.04399 -0.0 0.0 -0.0 7.45866 13.1519 14.0162 -7.15755 -13.3283 57.18 2.41368 -50.0848 1.12782 -35.3425 -2.47001 3.70649 -2.23942 4.16325 -13.1289 -0.0 0.0 -0.0 11.3685 27.3363 -21.791 -14.8073 15.3911 -58.3401 0.45153 12.6083 -0.0498827 -2.97548 0.114295 -0.362699 -1.1856 -15.2992 1.07961 0.0 0.0 0.0 -2.03299 52.8008 -2.02693 -15.007 0.321687 2.27396 20.317 -17.4273 -3.04337 -11.9718 0.0 0.0 -0.0 0.0 -0.0 1.91398 -21.1721 8.57368 -5.70773 -0.192569 -0.854441 7.19102 30.2569 1.31452 1.49934 -0.0 -0.0 0.0 0.0 0.0 
3490.24 754.061 -1333.3 14.6238 62.4801 -13.0381 -4.18887 0.265018 0.64754 -4.18866 0.223278 0.663091 -4.1856 0.0279795 0.699112 -4.18626 0.138037 0.68592 -8.64868 15.1482 3.46239 -8.75349 26.0061 6.92291 -0.0 0.0 -0.0 7.5091 13.4626 14.082 -7.53918 -13.6848 57.084 2.35919 -49.4402 1.08623 -35.488 -2.48459 3.71814 -2.17497 3.94032 -12.8005 -0.0 0.0 -0.0 12.0175 27.2896 -23.2694 -15.5152 15.8298 -57.2839 0.376125 10.5546 -0.0347418 -3.07042 0.118252 -0.374172 -1.17863 -18.6704 -0.461602 0.0 0.0 0.0 -2.74798 52.3895 -1.81066 -14.7911 0.321308 2.24084 20.2744 -16.9065 -3.02532 -12.9558 0.0 0.0 -0.0 0.0 -0.0 0.533678 -19.2864 8.73598 -5.14406 -0.177354 -0.769274 8.41029 30.0705 1.52587 2.76548 -0.0 -0.0 0.0 0.0 0.0 
3487.4 753.81 -1333.72 15.4822 62.7794 -14.2206 -4.23373 0.212899 0.693123 -4.23347 0.168363 0.705264 -4.23089 -0.0371493 0.724129 -4.23161 0.0776765 0.720909 -9.04687 15.6547 4.17119 -9.17475 26.5454 7.82697 -0.0 0.0 -0.0 7.57419 13.1312 14.2169 -7.78829 -14.1684 57.0016 2.31408 -48.8932 1.05209 -35.5601 -2.49183 3.72389 -2.0229 4.5289 -11.4915 -0.0 0.0 -0.0 12.4993 26.3453 -24.4838 -17.1145 16.8304 -55.7371 0.451596 12.6101 -0.0498971 -2.92219 0.112083 -0.356256 -0.862584 -22.4638 -3.96283 0.0 0.0 0.0 -3.73769 51.9751 -1.29276 -15.4262 0.322066 2.33828 20.1134 -16.5608 -2.9959 -12.469 0.0 0.0 -0.0 0.0 -0.0 -0.472442 -18.8218 9.30167 -4.50235 -0.159014 -0.672502 7.82346 29.7738 1.41711 6.73317 -0.0 -0.0 0.0 0.0 0.0 
3483.42 752.16 -1330.68 16.182 63.2747 -15.1181 -4.26531 0.175277 0.762193 -4.26499 0.126423 0.771801 -4.26271 -0.0965716 0.776101 -4.26355 0.0272072 0.781613 -9.7776 16.1228 5.00765 -9.94953 27.0023 8.92613 -0.0 0.0 -0.0 7.69524 13.4767 14.401 -8.17198 -15.2667 56.8963 2.33128 -49.1031 1.06508 -35.8291 -2.5189 3.74529 -1.63404 4.82697 -8.75152 -0.0 0.0 -0.0 12.8451 25.9009 -25.3311 -18.0921 17.7696 -54.3699 0.504627 14.0352 -0.0621184 -2.02927 0.0759056 -0.248001 -0.331112 -25.2499 -8.12884 0.0 0.0 0.0 -5.78122 52.6295 0.282679 -16.6493 0.320483 2.52593 20.7733 -16.0164 -3.07072 -12.0745 0.0 0.0 -0.0 0.0 -0.0 -0.836782 -18.0368 9.60197 -4.74898 -0.166191 -0.70967 6.66242 29.7246 1.21161 10.0142 -0.0 -0.0 0.0 0.0 0.0 
3482.12 753.739 -1330.9 16.5903 63.7704 -15.7723 -4.22979 0.125917 0.810702 -4.22942 0.0740763 0.817071 -4.22776 -0.159083 0.804852 -4.22866 -0.0299796 0.819874 -9.49356 16.2114 5.13616 -9.63963 27.0267 9.00363 -0.0 0.0 -0.0 7.68028 13.1613 14.3981 -8.92614 -15.8501 56.7481 2.32523 -49.0295 1.06051 -35.3411 -2.46986 3.70637 -1.82617 8.3385 -8.36837 -0.0 0.0 -0.0 12.728 25.939 -25.0568 -17.6318 18.7957 -54.6694 0.53505 14.845 -0.0697049 -1.95808 0.0730941 -0.239346 0.615387 -22.4886 -12.6478 0.0 0.0 0.0 -4.30776 52.236 -0.782205 -16.5368 0.320796 2.50867 16.8796 -15.1924 -2.52998 -11.3921 0.0 0.0 -0.0 0.0 -0.0 -1.9883 -15.1748 9.73912 -3.56313 -0.130218 -0.531237 3.45028 29.4643 0.632679 13.2687 -0.0 -0.0 0.0 0.0 0.0 
3478.85 751.472 -1329.71 17.1408 64.1361 -16.6198 -4.2063 0.11244 0.824574 -4.20592 0.0597442 0.830057 -4.20445 -0.176163 0.813346 -4.20537 -0.0455044 0.830959 -10.4406 16.1564 5.0529 -10.6685 27.1651 9.14162 -0.0 0.0 -0.0 7.65779 13.2075 14.3559 -9.76324 -16.9641 56.4688 2.36255 -49.4804 1.08878 -34.3756 -2.37383 3.62815 -1.77412 9.2763 -7.58401 -0.0 0.0 -0.0 12.6968 25.772 -25.0043 -17.9709 20.6038 -54.259 0.556888 15.4225 -0.0754062 -2.99234 0.114996 -0.364737 0.634596 -26.0083 -13.9217 0.0 0.0 0.0 -6.49998 52.4835 0.953846 -14.7777 0.32128 2.23877 15.7933 -15.5818 -2.38628 -13.4809 0.0 0.0 -0.0 0.0 -0.0 -2.35818 -14.3593 10.0669 -3.34046 -0.123052 -0.497816 1.72265 28.6725 0.314361 16.6927 -0.0 -0.0 0.0 0.0 0.0 
3474.84 748.568 -1328.68 17.7934 64.208 -17.4694 -4.15395 0.117622 0.824414 -4.15357 0.0649261 0.830227 -4.15202 -0.170492 0.815123 -4.15295 -0.0396237 0.831818 -11.0174 16.829 6.22962 -11.2709 27.7859 10.5923 -0.0 0.0 -0.0 7.53486 12.8146 14.1703 -10.5088 -17.8215 56.5386 2.41126 -50.0566 1.12597 -33.5094 -2.28881 3.55661 -1.72516 11.4931 -6.21885 -0.0 0.0 -0.0 13.0591 26.1532 -25.7956 -17.6365 20.8601 -53.5053 0.574315 15.8812 -0.0801081 -2.91015 0.111584 -0.3548 1.05003 -24.4938 -15.8821 0.0 0.0 0.0 -7.72521 52.7267 1.74872 -15.8773 0.321949 2.40748 17.9896 -14.8818 -2.67575 -13.2334 0.0 0.0 -0.0 0.0 -0.0 -2.75724 -12.6322 10.4253 -3.87401 -0.140006 -0.577943 0.500448 27.9016 0.0907572 20.0295 -0.0 -0.0 0.0 0.0 0.0 
